<svg width="315" height="137" viewBox="0 0 315 137" fill="none" xmlns="http://www.w3.org/2000/svg">
<path d="M81.6065 36.6819C81.6065 26.9525 83.9835 21.007 96.6332 21.007H117.688C124.825 21.007 128.934 22.6289 128.934 28.2501V30.0987H152.93C153.148 7.93736 148.714 0.899473 114.554 0.899473H91.442C69.8243 0.899473 56.9595 6.3039 56.9595 29.2234V51.7587C56.9595 74.6786 69.8243 80.0826 91.442 80.0826H114.554C122.487 80.0826 128.814 79.7019 133.855 78.8418C133.667 77.7456 133.568 76.5887 133.568 75.352C133.568 69.3498 135.964 64.3526 140.213 60.8123C143.499 58.0763 147.819 56.3362 152.883 55.8358C152.936 54.2755 152.947 52.6258 152.93 50.8819H128.934V52.7323C128.934 58.3537 124.825 59.9755 117.688 59.9755H96.6332C83.9835 59.9755 81.6065 54.0295 81.6065 44.3003V36.6819Z" fill="#005AA5"/>
<path d="M229.711 0.900294V29.6935H181.73V0.900294H157.73V55.7382C163.112 56.055 167.688 57.8351 171.101 60.774C175.115 64.2312 177.379 69.1045 177.379 74.9521C177.379 76.614 177.163 78.2415 176.742 79.8168L176.67 80.0826H181.73V51.2894H229.711V80.0826H253.707V0.900294H229.711Z" fill="#E31F25"/>
<path d="M155.991 63.2165C164.584 63.2165 169.923 67.7334 169.923 75.0051C169.923 79.4477 167.399 83.5075 162.817 86.4371L161.372 87.3604L162.545 88.6111L165.859 92.1407L167.033 93.3903L168.048 92.0093L171.485 87.332L171.546 87.2489H171.649H183.244H183.656L183.409 87.5774L174.308 99.6612L173.584 100.622L174.411 101.496L183.991 111.612L184.319 111.959H183.842H170.984H170.89L170.828 111.889L168.021 108.704L167.075 107.63L166.004 108.581C162.491 111.702 158.421 113.156 153.195 113.156C145.041 113.156 136.265 108.676 136.265 98.8393C136.265 93.7655 139.361 89.0907 144.346 86.6374L145.989 85.8286L144.801 84.4358C142.492 81.7315 141.062 79.2775 141.062 75.4043C141.062 67.8864 146.782 63.2165 155.991 63.2165V63.2165ZM155.227 81.5006L156.174 80.8879C158.923 79.1097 160.317 77.3541 160.317 75.6699C160.317 73.2443 158.525 71.6152 155.858 71.6152C153.273 71.6152 151.467 73.3377 151.467 75.8042C151.467 77.6581 153.041 79.4048 154.412 80.7205L155.227 81.5006ZM153.593 103.959C155.661 103.959 157.428 103.274 159.501 101.671L160.728 100.723L159.678 99.5811L153.424 92.7803L152.614 91.9001L151.606 92.5444C149.513 93.8831 147.469 95.4362 147.469 98.3721C147.469 101.869 150.583 103.959 153.593 103.959V103.959ZM155.991 61.7923C146.056 61.7923 139.636 67.137 139.636 75.4043C139.636 79.728 141.262 82.4853 143.716 85.3599C138.323 88.0143 134.839 93.1877 134.839 98.8393C134.839 109.654 144.354 114.581 153.195 114.581C158.752 114.581 163.17 113.005 166.952 109.645L169.758 112.83L170.248 113.383H170.984H183.842H187.628L185.027 110.634L175.447 100.517L184.547 88.4334L186.512 85.8245H183.244H171.649H170.825L170.336 86.4893L166.899 91.1664L163.585 87.6367C168.546 84.465 171.348 79.9477 171.348 75.0051C171.348 66.9778 165.32 61.7923 155.991 61.7923V61.7923ZM155.4 79.6925C154.188 78.5314 152.892 77.0843 152.892 75.8042C152.892 74.1242 154.057 73.039 155.858 73.039C157.327 73.039 158.891 73.7295 158.891 75.6699C158.891 76.3571 158.411 77.745 155.4 79.6925V79.6925ZM153.593 102.534C151.282 102.534 148.894 100.98 148.894 98.3721C148.894 96.3031 150.189 95.1421 152.374 93.7441L158.629 100.545C156.98 101.82 155.488 102.534 153.593 102.534" fill="#E31F25"/>
<path d="M24.5315 103.64V104.402C24.5315 107.245 24.4948 109.81 22.0227 111.786C19.5508 113.727 16.5352 113.691 13.3744 113.691C5.96081 113.691 0.546265 113.346 0.546265 103.849V97.1253C0.546265 88.5287 5.38068 87.2803 13.3744 87.2803C20.8608 87.2803 24.3493 88.0078 24.4948 95.8085V96.8138H17.0092V95.8085C16.754 93.4847 15.0464 93.3129 12.5743 93.3129C8.43306 93.3129 8.0316 94.5249 8.0316 98.2341V102.289C8.0316 106.173 8.21453 107.663 12.5743 107.663C15.5915 107.663 17.0443 107.453 17.0443 104.402V103.64H24.5315Z" fill="#005AA5"/>
<path d="M46.0465 104.402C46.0465 111.891 44.4106 113.691 36.4877 113.691C28.6738 113.691 26.967 111.68 26.967 104.402C26.967 96.9533 28.5298 95.0794 36.4877 95.0794C44.4817 95.0794 46.0465 96.7092 46.0465 104.402ZM33.2169 104.402C33.2169 108.354 33.5808 109.116 36.5965 109.116C39.5033 109.116 39.7955 108.354 39.7955 104.402C39.7955 100.452 39.5033 99.6557 36.5965 99.6557C33.5808 99.6557 33.2169 100.452 33.2169 104.402Z" fill="#005CA7"/>
<path d="M67.5942 104.402C67.5942 111.891 65.9608 113.691 58.037 113.691C50.224 113.691 48.5176 111.68 48.5176 104.402C48.5176 96.9533 50.0781 95.0794 58.037 95.0794C66.0322 95.0794 67.5942 96.7092 67.5942 104.402ZM54.7669 104.402C54.7669 108.354 55.1309 109.116 58.1459 109.116C61.0543 109.116 61.3456 108.354 61.3456 104.402C61.3456 100.452 61.0543 99.6557 58.1459 99.6557C55.1309 99.6557 54.7669 100.452 54.7669 104.402Z" fill="#005CA7"/>
<path d="M70.8308 95.2877H77.0814L76.9355 98.1641H77.2262C77.953 95.7021 79.9519 95.0793 82.677 95.0793C87.2932 95.0793 89.9087 96.9532 89.9087 101.768V105.928C89.9087 111.475 87.9098 113.691 82.677 113.691C80.3874 113.691 78.3883 113.241 77.3704 110.745H77.0814V121.354H70.8308V95.2877ZM77.0814 104.402C77.0814 107.453 77.2987 109.116 80.2055 109.116C82.7862 109.116 83.6578 108.527 83.6578 104.402C83.6578 100.868 83.513 99.6557 80.2055 99.6557C77.5534 99.6557 77.0814 100.556 77.0814 104.402Z" fill="#005CA7"/>
<path d="M111.024 107.418C111.024 110.157 110.079 111.716 108.443 112.616C106.808 113.486 104.483 113.691 101.72 113.691C94.198 113.691 92.3801 111.197 92.3801 104.402C92.3801 97.403 94.0522 95.0794 101.72 95.0794C108.879 95.0794 111.024 96.9842 111.024 104.402V105.408H98.6315C98.6315 108.595 99.1402 109.534 101.72 109.534C103.646 109.534 104.882 109.326 104.882 107.418H111.024ZM104.773 102.117C104.773 99.4112 103.719 99.2379 101.61 99.2379C99.3941 99.2379 98.704 99.7225 98.6315 102.117H104.773Z" fill="#005CA7"/>
<path d="M124.323 102.359C124.323 101.074 124.396 99.6557 122.688 99.6557C120.798 99.6557 120.363 101.074 120.363 102.567V113.486H114.111V95.2877H120.179V97.9575H120.435C121.272 95.8783 122.906 95.0793 125.231 95.0793C129.593 95.0793 129.956 98.4767 129.956 101.805V103.226H124.323V102.359Z" fill="#005CA7"/>
<path d="M215.42 113.486H208.489V103.295H199.442V113.486H192.511V87.4896H199.442V97.2635H208.489V87.4896H215.42V113.486Z" fill="#E31F25"/>
<path d="M231.051 113.486L231.261 109.982H230.983C230.153 112.792 228.072 113.691 225.543 113.691C221.937 113.691 219.37 112.166 219.37 107.731V95.2877H225.333V106.138C225.333 107.8 225.507 109.116 227.516 109.116C229.111 109.116 230.878 108.285 230.878 106.483V95.2877H236.842V113.486H231.051Z" fill="#E31F25"/>
<path d="M246.858 95.2877V98.682H247.1C247.969 95.8084 249.737 95.0793 252.543 95.0793C256.565 95.0793 258.402 96.9841 258.402 100.902V113.486H252.44V102.289C252.403 100.52 251.92 99.6557 249.978 99.6557C247.309 99.6557 246.858 101.247 246.858 103.468V113.486H240.898V95.2877H246.858Z" fill="#E31F25"/>
<path d="M275.941 99.6557H269.041V107.8C269.077 108.876 269.285 109.326 270.394 109.326C271.955 109.326 271.884 108.217 271.955 106.966L271.988 105.998H276.74V107.628C276.74 112.584 274.898 113.691 270.047 113.691C266.234 113.691 263.079 113.208 263.079 108.632V99.6557H260.862V95.2877H263.079V91.4405H269.041V95.2877H275.941V99.6557Z" fill="#E31F25"/>
<path d="M296.008 107.418C296.008 110.157 295.107 111.716 293.546 112.616C291.987 113.486 289.768 113.691 287.134 113.691C279.96 113.691 278.225 111.197 278.225 104.402C278.225 97.403 279.822 95.0794 287.134 95.0794C293.964 95.0794 296.008 96.9842 296.008 104.402V105.408H284.188C284.188 108.595 284.676 109.534 287.134 109.534C288.973 109.534 290.148 109.326 290.148 107.418H296.008ZM290.047 102.117C290.047 99.4112 289.042 99.2379 287.031 99.2379C284.916 99.2379 284.257 99.7225 284.188 102.117H290.047Z" fill="#E31F25"/>
<path d="M308.695 102.359C308.695 101.074 308.764 99.6557 307.134 99.6557C305.332 99.6557 304.914 101.074 304.914 102.567V113.486H298.954V95.2877H304.745V97.9575H304.985C305.782 95.8783 307.343 95.0793 309.56 95.0793C313.72 95.0793 314.067 98.4767 314.067 101.805V103.226H308.695V102.359Z" fill="#E31F25"/>
<path d="M1.34143 129.757C1.34143 126.749 3.04862 126.039 5.91809 126.039H9.66276C14.1968 126.039 14.7849 127.004 14.7561 129.913H11.5708V129.63C11.5708 128.892 11.0261 128.679 10.0789 128.679H6.60704C4.92824 128.679 4.61222 129.459 4.61222 130.737V131.844C4.61222 133.334 4.92822 133.902 6.43475 133.902H9.83555C11.2696 133.902 11.7004 133.76 11.7004 132.482H14.8854V133.448C14.8854 135.179 14.2538 136.542 11.0545 136.542H5.91809C3.04862 136.542 1.34143 135.832 1.34143 132.823V129.757ZM111.961 126.152H124.099V128.707H119.622V136.428H116.438V128.707H111.961V126.152ZM94.974 126.152H104.586C107.04 126.152 107.7 127.359 107.7 129.204V129.857C107.7 131.233 107.384 132.043 105.921 132.383V132.412C106.868 132.582 107.657 132.993 107.657 134.682V136.428H104.472V135.193C104.472 134.114 104.156 133.76 103.166 133.76H98.1586V136.428H94.974V126.152ZM98.1586 131.205H103.424C104.285 131.205 104.601 130.864 104.601 130.126V129.786C104.601 128.877 104.142 128.707 103.137 128.707H98.1586V131.205ZM75.9202 129.757C75.9202 126.749 77.6278 126.039 80.4969 126.039H85.6049C88.4746 126.039 90.1816 126.749 90.1816 129.757V132.823C90.1816 135.832 88.4746 136.542 85.6049 136.542H80.4969C77.6278 136.542 75.9202 135.832 75.9202 132.823V129.757ZM79.1914 131.844C79.1914 133.334 79.507 133.902 81.0138 133.902H85.0882C86.5947 133.902 86.9108 133.334 86.9108 131.844V130.737C86.9108 129.459 86.5948 128.679 84.9158 128.679H81.1854C79.507 128.679 79.1914 129.459 79.1914 130.737V131.844ZM60.511 126.152H71.3576V128.622H63.6957V130.538H70.9993V132.923H63.6957V136.428H60.511V126.152ZM38.5017 126.152H43.3944L46.9954 132.767L50.5966 126.152H55.4892V136.428H52.39V129.048H52.3609L48.1861 136.428H45.8045L41.6293 129.048H41.6006V136.428H38.5017V126.152ZM19.448 129.757C19.448 126.749 21.1553 126.039 24.0246 126.039H29.1324C32.0021 126.039 33.7093 126.749 33.7093 129.757V132.823C33.7093 135.832 32.0021 136.542 29.1324 136.542H24.0246C21.1553 136.542 19.448 135.832 19.448 132.823V129.757ZM22.7192 131.844C22.7192 133.334 23.0348 133.902 24.5413 133.902H28.616C30.1225 133.902 30.4381 133.334 30.4381 131.844V130.737C30.4381 129.459 30.1225 128.679 28.4437 128.679H24.7133C23.0348 128.679 22.7192 129.459 22.7192 130.737V131.844Z" fill="#005AA5"/>
<path d="M138.49 126.152H141.675V136.428H138.49V126.152ZM300.173 133.064H303.358C303.373 134.157 303.817 134.242 304.736 134.242H308.638C309.313 134.242 310.001 134.172 310.001 133.377C310.001 132.482 309.628 132.426 305.525 132.426C300.733 132.426 300.188 131.858 300.188 129.332C300.188 127.473 300.36 126.039 304.377 126.039H308.824C312.497 126.039 312.842 127.274 312.842 129.077V129.402H309.657C309.657 128.65 309.571 128.338 308.108 128.338H304.578C303.861 128.338 303.373 128.579 303.373 129.133C303.373 130.027 303.76 130.056 307.174 130.041C312.125 130.028 313.272 130.325 313.272 133.32C313.272 136.087 312.326 136.542 308.093 136.542H304.233C301.335 136.542 300.173 136.002 300.173 133.774V133.064ZM281.206 126.152H286.141L292.124 133.618H292.153V126.152H295.338V136.428H290.403L284.42 128.963H284.391V136.428H281.206V126.152ZM262.153 129.757C262.153 126.749 263.86 126.039 266.729 126.039H271.837C274.706 126.039 276.414 126.749 276.414 129.757V132.823C276.414 135.832 274.706 136.542 271.837 136.542H266.729C263.86 136.542 262.153 135.832 262.153 132.823V129.757ZM265.423 131.844C265.423 133.334 265.739 133.902 267.246 133.902H271.32C272.827 133.902 273.143 133.334 273.143 131.844V130.737C273.143 129.459 272.827 128.679 271.148 128.679H267.418C265.739 128.679 265.423 129.459 265.423 130.737V131.844ZM254.003 126.152H257.188V136.428H254.003V126.152ZM237.431 126.152H249.569V128.707H245.092V136.428H241.907V128.707H237.431V126.152ZM225.394 126.152H229.539L235.25 136.428H231.706L230.717 134.611H224.26L223.328 136.428H219.769L225.394 126.152ZM225.451 132.397H229.526L227.459 128.537L225.451 132.397ZM202.996 126.152H206.483L210.543 133.788L214.604 126.152H218.09L212.508 136.428H208.577L202.996 126.152ZM184.947 129.757C184.947 126.749 186.654 126.039 189.523 126.039H194.631C197.501 126.039 199.208 126.749 199.208 129.757V132.823C199.208 135.832 197.501 136.542 194.631 136.542H189.523C186.654 136.542 184.947 135.832 184.947 132.823V129.757ZM188.218 131.844C188.218 133.334 188.534 133.902 190.04 133.902H194.114C195.621 133.902 195.937 133.334 195.937 131.844V130.737C195.937 129.459 195.621 128.679 193.943 128.679H190.212C188.534 128.679 188.218 129.459 188.218 130.737V131.844ZM166.022 126.152H170.957L176.94 133.618H176.969V126.152H180.154V136.428H175.219L169.236 128.963H169.207V136.428H166.022V126.152ZM146.869 126.152H151.805L157.787 133.618H157.816V126.152H161.001V136.428H156.065L150.083 128.963H150.054V136.428H146.869V126.152Z" fill="#005AA5"/>
</svg>
